# xmcd
#
# Track frame offsets: 
#        150
#        16607
#        32699
#        54414
#        77310
#        97211
#        112247
#        122645
#        142977
#        155162
#        172632
#        189334
#
# Disc length: 2953 seconds
#
# Revision: 0
# Processed by: cddbd v1.5.2PL0 Copyright (c) Steve Scherf et al.
# Submitted via: ExactAudioCopyFreeDBPlugin 1.0
#
DISCID=8d0b870c
DTITLE=Galvin, Milteau, Robinson, Smyth - Consideration
DYEAR=2011
DGENRE=Blues
TTITLE0=Higher And Highe
TTITLE1=Long Lost Friend
TTITLE2=Osinga Vela  Will The Circle Be Unbroken (Feat. Palata Singers
TTITLE2=)
TTITLE3=The Color Of Love.wav
TTITLE4=Leavin' In The Morning
TTITLE5=Valse Créole
TTITLE6=Sun Will Shine
TTITLE7=Fever (Feat. Carmen Maria Vega)
TTITLE8=Devil In Disguise
TTITLE9=Mystery
TTITLE10=Keep On Moving (Feat. Emel Mathlouthi)
TTITLE11=Turn It Around
EXTD=
EXTT0=
EXTT1=
EXTT2=
EXTT3=
EXTT4=
EXTT5=
EXTT6=
EXTT7=
EXTT8=
EXTT9=
EXTT10=
EXTT11=
PLAYORDER=
